# 3ds Max Wavefront OBJ Exporter v0.97b - (c)2007 guruware
# File Created: 19.08.2014 22:56:44

mtllib stone.mtl

#
# object GeoSphere002
#

v  0.5193 10.5795 1.4041
v  0.7361 10.3529 -0.6623
v  -1.4642 10.5349 0.5676
v  0.1575 10.5790 -1.4720
v  0.3756 9.1395 -1.9098
v  -0.6209 10.3198 -1.1918
v  -1.6028 10.4648 -0.2805
v  -0.8708 9.5242 -1.9918
v  -0.8413 10.6548 1.6513
v  -3.3605 9.1023 0.7800
v  -2.4068 10.0003 -0.9282
v  -2.7312 9.4676 1.6633
v  -2.0995 10.0993 2.4937
v  0.1597 10.3760 2.5575
v  -0.3437 9.7896 3.0113
v  1.7691 9.4768 2.1032
v  2.9048 8.7864 0.7051
v  2.3345 8.8469 -0.3482
v  -1.5441 8.6071 -1.8002
v  -3.3337 9.5916 -0.4126
v  -2.7569 8.7637 -1.4915
v  -1.6941 9.4240 4.9588
v  2.0381 9.2303 2.8878
v  2.9061 8.4901 2.9009
v  3.9364 8.3730 2.5331
v  3.4938 8.4316 3.7183
v  3.4510 6.8586 3.0953
v  2.8496 6.8324 4.2428
v  3.4690 6.0379 2.3973
v  2.3099 6.0591 4.6386
v  2.4875 5.3745 3.9211
v  1.9516 5.0077 3.4944
v  0.8797 4.7641 3.7691
v  1.2228 4.4218 2.9089
v  0.3567 4.0439 2.2207
v  -1.2880 4.7512 1.4607
v  -0.9383 4.0076 2.5670
v  -0.4883 5.3133 0.4178
v  0.3560 4.2082 0.8609
v  0.0041 3.9007 -0.2842
v  1.2215 4.0689 0.2805
v  2.1972 4.4448 1.0209
v  2.1979 4.4316 2.2845
v  3.6578 6.8770 1.7967
v  3.4496 6.8872 0.4754
v  3.4845 7.6341 1.1246
v  2.3068 6.1209 -1.2434
v  2.3221 7.7049 -1.1499
v  2.8871 5.2289 0.5517
v  0.8774 4.4301 -0.8673
v  1.2695 6.0238 -1.5440
v  -0.2256 5.4861 -1.6602
v  0.0674 6.0015 -2.4773
v  1.4128 7.8857 -1.8781
v  -0.5836 6.8167 -3.1197
v  -1.8933 6.7721 -2.5734
v  -1.1922 6.0397 -2.5861
v  -2.4871 5.9969 -2.2510
v  -1.5496 5.5890 -1.5163
v  -0.3245 4.3998 -1.3321
v  -1.2706 4.5415 -0.6625
v  -2.4584 4.8668 -0.7517
v  -3.4995 5.5330 -0.7826
v  -4.2299 6.3901 -0.5616
v  -3.4491 7.0073 -1.6535
v  -4.2723 7.4384 -0.5192
v  -5.0706 6.6474 1.2544
v  -4.8807 6.9634 2.4673
v  -4.2237 6.1381 3.6228
v  -3.7101 4.8754 1.3133
v  -3.2008 5.3834 0.2302
v  -2.1140 4.1959 2.5129
v  -2.1152 4.7454 0.2946
v  -1.2686 4.3546 3.3081
v  -4.0676 5.4049 2.3995
v  -3.4973 5.3488 3.4531
v  -3.4692 8.1314 4.6954
v  -3.0711 6.6770 4.8124
v  -2.4317 7.5210 5.0988
v  -2.7537 9.3377 4.4031
v  -3.6477 8.1216 3.6009
v  -4.2704 7.4114 3.1594
v  -2.7424 9.4029 3.0280
v  0.6076 9.5423 3.8009
v  -0.5498 8.3804 5.2381
v  1.0397 7.7086 5.4185
v  2.3251 7.6449 4.6332
v  2.8186 8.4582 4.2724
v  1.2730 5.9586 5.0297
v  0.7307 6.7691 5.3877
v  -0.5791 6.7368 5.5168
v  -0.6091 5.4794 4.9080
v  -1.5466 4.9121 4.1561
v  -2.7051 5.4302 4.0942
v  -1.8891 6.7046 5.2233
# 95 vertices

vn 0.3584 0.9311 0.0677
vn 0.5235 0.8158 -0.2458
vn -0.3133 0.9495 -0.0177
vn 0.2593 0.8051 -0.5334
vn 0.4193 0.2975 -0.8577
vn -0.3980 0.7983 -0.4521
vn -0.2753 0.9476 -0.1619
vn -0.1951 0.2962 -0.9350
vn -0.1045 0.9775 0.1834
vn -0.5200 0.8417 0.1452
vn -0.4393 0.7768 -0.4513
vn -0.6300 0.7761 0.0275
vn -0.3969 0.8942 0.2069
vn 0.0510 0.9008 0.4313
vn -0.1730 0.8011 0.5730
vn 0.5884 0.8024 0.0999
vn 0.6181 0.7815 -0.0849
vn 0.6647 0.6179 -0.4200
vn -0.3049 0.1909 -0.9331
vn -0.3923 0.9195 0.0237
vn -0.3158 0.4659 -0.8265
vn -0.1264 0.6765 0.7255
vn -0.0664 0.9195 0.3875
vn -0.6044 0.7374 0.3014
vn 0.5278 0.8091 0.2584
vn 0.4344 0.9003 -0.0274
vn 0.5688 0.8180 0.0858
vn 0.7831 0.6096 -0.1235
vn 0.6876 0.5824 0.4336
vn 0.9082 -0.2473 0.3376
vn 0.7273 -0.1741 0.6639
vn 0.9012 -0.4067 0.1496
vn 0.5230 -0.2758 0.8065
vn 0.5179 -0.7023 0.4884
vn 0.4162 -0.7922 0.4463
vn 0.1804 -0.8289 0.5296
vn 0.2022 -0.9269 0.3161
vn 0.1308 -0.9912 0.0218
vn 0.0333 -0.9235 -0.3821
vn -0.0342 -0.9994 -0.0048
vn -0.3420 -0.9380 0.0568
vn -0.2523 -0.9660 0.0559
vn -0.2323 -0.9722 0.0291
vn 0.3176 -0.9465 -0.0574
vn 0.5022 -0.8587 -0.1023
vn 0.4802 -0.8552 0.1953
vn 0.9820 -0.1713 -0.0792
vn 0.9364 -0.0365 -0.3491
vn 0.9197 0.2990 -0.2544
vn 0.8603 0.4712 -0.1946
vn 0.5638 -0.4286 -0.7060
vn 0.7374 0.2248 -0.6370
vn 0.7797 -0.5515 -0.2965
vn 0.4128 -0.6573 -0.6305
vn 0.4356 -0.4347 -0.7882
vn 0.1109 -0.6363 -0.7635
vn 0.3561 -0.5962 -0.7196
vn 0.4902 0.2218 -0.8429
vn 0.0644 0.0281 -0.9975
vn -0.1122 0.4218 -0.8997
vn 0.1771 0.1218 -0.9766
vn -0.3717 0.0888 -0.9241
vn -0.1481 -0.6627 -0.7341
vn -0.3835 -0.4866 -0.7850
vn -0.1023 -0.7737 -0.6253
vn -0.0620 -0.6691 -0.7406
vn -0.3078 -0.9437 -0.1211
vn -0.3379 -0.8814 -0.3300
vn -0.6695 -0.6880 -0.2800
vn -0.8250 -0.3819 -0.4165
vn -0.6690 0.0560 -0.7412
vn -0.8692 0.2719 -0.4129
vn -0.9895 -0.0985 -0.1060
vn -0.8821 0.3964 -0.2546
vn -0.5318 0.3493 -0.7715
vn -0.8200 0.5625 0.1060
vn -0.9450 0.1875 0.2681
vn -0.7746 -0.3561 0.5227
vn -0.5259 -0.8174 -0.2350
vn -0.5534 -0.8117 -0.1867
vn -0.2971 -0.9453 0.1349
vn -0.1561 -0.9869 -0.0406
vn -0.1283 -0.8744 0.4679
vn -0.9728 -0.0714 -0.2201
vn -0.4864 -0.7663 0.4198
vn -0.6656 0.3138 0.6772
vn -0.4072 -0.4537 0.7927
vn -0.2477 0.0816 0.9654
vn -0.5119 0.7522 0.4150
vn -0.7960 0.5989 0.0878
vn -0.8380 0.4330 0.3322
vn -0.7234 0.6706 0.1643
vn -0.5025 0.8638 0.0368
vn 0.2911 0.7928 0.5355
vn 0.0702 0.3406 0.9376
vn 0.2898 0.2766 0.9162
vn 0.4502 0.2584 0.8547
vn 0.2159 0.6172 0.7566
vn 0.2972 -0.4621 0.8356
vn 0.1434 -0.1441 0.9791
vn -0.1184 0.4830 0.8676
vn -0.1197 -0.6007 0.7905
vn -0.2240 -0.7379 0.6367
vn -0.3698 -0.6218 0.6904
vn -0.2076 -0.2702 0.9402
vn 0.7640 0.3672 -0.5305
vn 0.1420 0.8692 0.4736
# 107 vertex normals

vt 0.9454 0.6405 0.0000
vt 0.3000 0.9714 0.0000
vt 0.4879 0.8918 0.0000
vt 0.7805 0.7517 0.0000
vt 0.3803 0.8785 0.0000
vt 0.3207 0.9210 0.0000
vt 0.4805 0.7142 0.0000
vt 0.3357 0.7570 0.0000
vt 0.8927 0.5951 0.0000
vt 0.9529 0.7313 0.0000
vt 0.7485 0.6651 0.0000
vt 0.5104 0.9710 0.0000
vt 0.3466 0.8089 0.0000
vt 0.2628 0.8824 0.0000
vt 0.7273 0.5697 0.0000
vt 0.2553 0.7713 0.0000
vt 0.1457 0.9091 0.0000
vt 0.2005 0.7697 0.0000
vt 0.8771 0.7791 0.0000
vt 0.6516 0.6125 0.0000
vt 1.0016 0.8627 0.0000
vt 0.8666 0.9147 0.0000
vt 0.9292 0.8279 0.0000
vt 0.8900 0.7194 0.0000
vt 0.7336 0.8565 0.0000
vt 0.5734 0.9284 0.0000
vt 0.5509 0.4734 0.0000
vt 0.3635 0.6775 0.0000
vt 0.5957 0.6445 0.0000
vt 0.4899 0.6994 0.0000
vt 0.5418 0.7743 0.0000
vt 0.5539 0.5594 0.0000
vt 0.2871 0.3237 0.0000
vt 0.3309 0.5029 0.0000
vt 0.1957 0.4939 0.0000
vt 0.1573 0.3056 0.0000
vt 0.3771 0.2399 0.0000
vt 0.1226 0.2127 0.0000
vt 0.2130 0.1445 0.0000
vt 0.2662 0.1086 0.0000
vt 0.2383 0.0773 0.0000
vt 0.3404 0.0498 0.0000
vt 0.4234 0.0161 0.0000
vt 0.5002 0.1063 0.0000
vt 0.3846 0.0074 0.0000
vt 0.4565 0.1234 0.0000
vt 0.3486 0.2050 0.0000
vt 0.3793 0.0726 0.0000
vt 0.2448 0.0579 0.0000
vt 0.5754 0.0526 0.0000
vt 0.7093 0.0329 0.0000
vt 0.6431 0.0445 0.0000
vt 0.5542 0.0773 0.0000
vt 0.4110 0.0592 0.0000
vt 0.4341 0.3429 0.0000
vt 0.5838 0.3615 0.0000
vt 0.5104 0.5519 0.0000
vt 0.4055 0.8793 0.0000
vt 0.1367 0.8592 0.0000
vt 0.7888 0.2973 0.0000
vt 0.7573 0.4757 0.0000
vt 0.5970 0.1725 0.0000
vt 0.7685 0.1006 0.0000
vt 0.8242 0.2902 0.0000
vt 0.8445 0.2308 0.0000
vt 0.9303 0.3000 0.0000
vt 0.8375 0.5058 0.0000
vt 0.9924 0.4009 0.0000
vt 0.4471 0.5635 0.0000
vt 0.7113 0.7123 0.0000
vt 0.5686 0.6871 0.0000
vt 0.0550 0.3458 0.0000
vt 0.0691 0.4282 0.0000
vt 0.0083 0.4428 0.0000
vt 0.0594 0.3286 0.0000
vt 0.8268 0.2406 0.0000
vt 0.9047 0.2965 0.0000
vt 0.9422 0.3058 0.0000
vt 0.8216 0.1033 0.0000
vt 0.2133 0.1368 0.0000
vt 0.1352 0.2698 0.0000
vt 0.1352 0.1324 0.0000
vt 0.7438 0.1105 0.0000
vt 0.7496 0.1486 0.0000
vt 0.2089 0.1750 0.0000
vt 0.2170 0.2507 0.0000
vt 0.2568 0.3436 0.0000
vt 0.1444 0.4322 0.0000
vt 0.2799 0.4611 0.0000
vt 0.4662 0.3410 0.0000
vt 0.5665 0.9120 0.0000
vt 0.0091 0.8948 0.0000
vt 0.6102 0.7514 0.0000
vt 0.6313 0.8737 0.0000
vt 0.4667 0.9732 0.0000
vt 0.5418 0.8592 0.0000
vt 0.7246 0.2423 0.0000
vt 0.6086 0.3555 0.0000
vt 0.4420 0.1400 0.0000
vt 0.3286 0.2162 0.0000
vt 0.5655 0.0425 0.0000
vt 0.3248 0.1431 0.0000
vt 0.3883 0.0294 0.0000
vt 0.6326 0.1210 0.0000
vt 0.6580 0.0465 0.0000
vt 0.5738 0.1808 0.0000
vt 0.6917 0.1562 0.0000
vt 0.8803 0.4485 0.0000
vt 0.8682 0.2823 0.0000
vt 0.9152 0.3726 0.0000
vt 0.6015 0.8027 0.0000
vt 0.5079 0.6627 0.0000
vt 0.5718 0.6470 0.0000
vt 0.0091 0.7519 0.0000
vt 0.7354 0.6550 0.0000
vt 0.8120 0.7091 0.0000
vt 0.5643 0.8127 0.0000
vt 0.4590 0.7981 0.0000
vt 0.6709 0.7932 0.0000
vt 0.3270 0.6183 0.0000
vt 0.0365 0.7984 0.0000
vt 0.0974 0.8991 0.0000
vt 0.6926 0.7360 0.0000
vt 0.5953 0.5455 0.0000
vt 0.7540 0.6281 0.0000
vt 0.1308 0.9577 0.0000
vt 0.0796 0.1961 0.0000
vt 0.1023 0.3926 0.0000
vt 0.0124 0.3895 0.0000
vt 0.0283 0.2833 0.0000
vt 0.0141 0.2780 0.0000
vt 0.0997 0.1434 0.0000
vt 0.1925 0.0890 0.0000
vt 0.2960 0.0370 0.0000
vt 0.7634 0.0946 0.0000
vt 0.7654 0.1542 0.0000
vt 0.9487 0.2768 0.0000
vt 0.0478 0.2782 0.0000
vt 0.1926 0.1486 0.0000
vt 0.1852 0.9961 0.0000
vt 0.3281 0.8289 0.0000
vt 0.2580 0.7966 0.0000
vt 0.9150 0.2783 0.0000
vt 0.8581 0.1456 0.0000
vt 0.4258 0.7932 0.0000
vt 0.6945 0.3940 0.0000
vt 0.7269 0.8712 0.0000
vt 0.6733 0.5599 0.0000
vt 0.5288 0.6966 0.0000
vt 0.6111 0.1838 0.0000
vt 0.4312 0.6974 0.0000
vt 0.5299 0.0304 0.0000
vt 0.4276 0.9672 0.0000
vt 0.1477 0.7975 0.0000
vt 0.0489 0.9268 0.0000
vt 0.3293 0.6324 0.0000
vt 0.5288 0.7815 0.0000
vt 0.7099 0.8475 0.0000
vt 0.8019 0.7634 0.0000
vt 0.7817 0.7999 0.0000
vt 0.9851 0.6892 0.0000
vt 0.9427 0.8801 0.0000
vt 0.2795 0.9649 0.0000
vt 0.1631 0.9732 0.0000
vt 0.0313 0.9564 0.0000
vt 0.2096 0.6875 0.0000
vt 0.2386 0.5455 0.0000
vt 0.3355 0.6358 0.0000
vt 0.2093 0.6947 0.0000
vt 0.4486 0.7669 0.0000
vt 0.4247 0.5481 0.0000
vt 0.2371 0.7696 0.0000
vt 0.0091 0.6438 0.0000
vt 0.0635 0.6396 0.0000
vt 0.1058 0.7038 0.0000
vt 0.3686 0.5505 0.0000
vt 0.1979 0.6680 0.0000
vt 0.1147 0.5293 0.0000
vt 0.2287 0.4868 0.0000
vt 0.3463 0.4734 0.0000
vt 0.2774 0.4887 0.0000
vt 0.5770 0.5767 0.0000
vt 0.8469 0.5586 0.0000
vt 0.7328 0.6946 0.0000
vt 0.2466 0.6977 0.0000
vt 0.2039 0.5521 0.0000
vt 0.1422 0.6539 0.0000
vt 0.2884 0.8812 0.0000
vt 0.4929 0.8349 0.0000
vt 0.1703 0.8530 0.0000
vt 0.0371 0.7937 0.0000
vt 0.6735 0.7066 0.0000
vt 0.2490 0.8598 0.0000
vt 0.0653 0.7696 0.0000
vt 0.1205 0.8546 0.0000
vt 0.0313 0.8818 0.0000
vt 0.1777 0.6913 0.0000
vt 0.1145 0.7320 0.0000
# 198 texture coords

g GeoSphere002
usemtl _stone_stone_stone_stone_stonewire_008008136
s 1
f 1/5/1 2/7/2 3/26/3 
f 3/2/3 2/3/2 4/12/4 
f 2/6/2 5/8/5 4/58/4 
f 3/26/3 4/71/4 6/93/6 
f 3/26/3 6/93/6 7/94/7 
f 4/69/4 5/151/5 8/156/8 
f 4/21/4 8/22/8 6/23/6 
f 6/23/6 8/22/8 7/24/7 
f 1/5/1 3/26/3 9/95/9 
f 7/1/7 10/4/10 3/9/3 
f 7/1/7 11/10/11 10/4/10 
f 3/9/3 10/4/10 12/11/12 
f 3/9/3 12/11/12 13/15/13 
f 1/13/1 9/14/9 14/16/14 
f 3/2/3 13/17/13 9/14/9 
f 9/14/9 13/17/13 15/18/15 
f 9/14/9 15/18/15 14/16/14 
f 2/3/2 16/28/16 17/112/17 
f 18/59/18 5/8/5 2/6/2 
f 18/59/18 2/6/2 17/155/17 
f 19/185/19 11/186/11 8/156/8 
f 11/147/11 7/94/7 8/192/8 
f 20/19/20 10/4/10 11/10/11 
f 16/193/16 2/7/2 1/5/1 
f 16/28/16 1/13/1 14/16/14 
f 11/186/11 19/185/19 21/187/21 
s 2
f 22/114/22 15/18/23 13/17/24 
f 23/120/25 24/176/26 16/28/27 
f 25/194/28 24/195/26 26/196/29 
f 27/33/30 25/34/28 26/35/29 
f 27/33/30 26/35/29 28/36/31 
f 29/37/32 27/33/30 28/36/31 
f 29/37/32 28/36/31 30/38/33 
f 31/39/34 29/37/32 30/38/33 
f 32/40/35 31/39/34 30/38/33 
f 32/40/35 30/38/33 33/41/36 
f 34/42/37 32/40/35 33/41/36 
f 34/42/37 33/41/36 35/43/38 
f 36/44/39 35/43/38 37/45/40 
f 36/46/39 38/47/41 39/48/42 
f 38/47/41 40/49/43 39/48/42 
f 39/50/42 40/51/43 41/52/44 
f 41/52/44 42/53/45 39/50/42 
f 39/50/42 42/53/45 43/54/46 
f 39/50/42 43/54/46 34/42/37 
f 29/37/32 32/40/35 43/54/46 
f 44/55/47 29/37/32 45/56/48 
f 46/115/49 44/116/47 45/123/48 
f 45/123/48 17/148/50 46/115/49 
f 46/29/49 17/124/50 24/125/26 
f 47/60/51 48/61/52 45/56/48 
f 49/62/53 47/60/51 45/56/48 
f 50/63/54 51/64/55 49/62/53 
f 41/52/44 50/63/54 49/62/53 
f 50/63/54 52/65/56 51/64/55 
f 51/64/55 52/65/56 53/66/57 
f 54/67/58 51/64/55 53/66/57 
f 54/67/58 53/66/57 55/68/59 
f 55/188/59 19/185/60 54/189/58 
f 19/185/60 5/151/61 54/189/58 
f 56/190/62 19/185/60 55/188/59 
f 57/72/63 56/73/62 55/74/59 
f 58/75/64 56/73/62 57/72/63 
f 59/76/65 58/77/64 57/78/63 
f 57/78/63 52/65/56 59/76/65 
f 59/76/65 52/65/56 60/79/66 
f 61/80/67 59/81/65 60/82/66 
f 61/80/67 60/82/66 40/49/43 
f 40/51/43 60/79/66 50/63/54 
f 61/83/67 62/84/68 59/76/65 
f 58/75/64 62/85/68 63/86/69 
f 58/75/64 63/86/69 64/87/70 
f 65/88/71 58/75/64 64/87/70 
f 66/89/72 65/88/71 64/87/70 
f 64/87/70 67/90/73 66/89/72 
f 20/70/74 65/91/71 66/157/72 
f 65/91/71 20/70/74 21/158/75 
f 65/191/71 21/187/75 56/190/62 
f 67/160/73 10/161/76 66/162/72 
f 68/184/77 10/161/76 67/160/73 
f 69/97/78 68/98/77 67/90/73 
f 70/99/79 69/97/78 67/90/73 
f 67/90/73 71/100/80 70/99/79 
f 72/101/81 70/99/79 71/100/80 
f 72/101/81 71/100/80 73/102/82 
f 36/44/39 72/103/81 73/104/82 
f 72/101/81 74/105/83 75/106/84 
f 74/105/83 76/107/85 75/106/84 
f 69/97/78 75/106/84 76/107/85 
f 77/108/86 69/97/78 78/109/87 
f 78/109/87 79/110/88 77/108/86 
f 79/30/88 80/57/89 77/113/86 
f 77/92/86 80/121/89 81/122/90 
f 81/122/90 82/126/91 77/92/86 
f 12/11/92 83/20/93 22/27/22 
f 84/167/94 85/168/95 86/169/96 
f 84/177/94 86/178/96 23/120/25 
f 86/178/96 87/179/97 23/120/25 
f 23/25/25 87/96/97 88/111/98 
f 89/127/99 87/128/97 86/129/96 
f 86/129/96 90/130/100 89/127/99 
f 90/130/100 91/131/101 89/127/99 
f 91/131/101 92/132/102 89/127/99 
f 33/41/36 89/127/99 92/132/102 
f 33/41/36 92/132/102 93/133/103 
f 74/134/83 33/41/36 93/133/103 
f 93/135/103 94/136/104 74/105/83 
f 93/135/103 91/137/101 94/136/104 
f 95/138/105 94/139/104 91/131/101 
f 95/170/105 22/171/22 79/30/88 
f 91/117/101 90/118/100 95/119/105 
f 90/172/100 85/168/95 95/170/105 
f 90/172/100 86/169/96 85/168/95 
f 69/97/78 94/136/104 95/143/105 
f 35/43/38 33/41/36 74/134/83 
f 93/135/103 92/144/102 91/137/101 
f 28/36/31 87/128/97 89/127/99 
f 26/173/29 88/174/98 87/175/97 
f 95/170/105 85/168/95 22/171/22 
f 79/30/88 22/171/22 80/57/89 
f 95/143/105 79/110/88 78/109/87 
f 82/146/91 69/97/78 77/108/86 
f 78/109/87 69/97/78 95/143/105 
f 69/97/78 76/107/85 94/136/104 
f 70/163/79 75/164/84 69/165/78 
f 74/105/83 94/136/104 76/107/85 
f 37/45/40 74/134/83 72/103/81 
f 73/102/82 71/100/80 62/85/68 
f 72/101/81 75/106/84 70/99/79 
f 64/87/70 71/100/80 67/90/73 
f 69/97/78 82/146/91 68/98/77 
f 68/140/77 82/126/91 10/141/76 
f 64/87/70 63/86/69 71/100/80 
f 71/100/80 63/86/69 62/85/68 
f 73/102/82 62/85/68 61/80/67 
f 38/150/41 73/104/82 61/83/67 
f 53/66/57 52/65/56 57/78/63 
f 58/77/64 59/76/65 62/84/68 
f 58/75/64 65/88/71 56/73/62 
f 54/166/58 18/59/106 48/198/52 
f 55/68/59 53/66/57 57/78/63 
f 54/67/58 47/60/51 51/64/55 
f 60/79/66 52/65/56 50/63/54 
f 29/37/32 49/62/53 45/56/48 
f 47/60/51 49/62/53 51/64/55 
f 47/60/51 54/67/58 48/61/52 
f 48/149/52 18/182/106 45/123/48 
f 25/183/28 44/116/47 46/115/49 
f 27/33/30 29/37/32 44/55/47 
f 29/37/32 43/54/46 49/62/53 
f 42/53/45 49/62/53 43/54/46 
f 41/52/44 49/62/53 42/53/45 
f 40/51/43 50/63/54 41/52/44 
f 38/47/41 61/80/67 40/49/43 
f 36/44/39 73/104/82 38/150/41 
f 37/45/40 72/103/81 36/44/39 
f 36/46/39 39/48/42 35/152/38 
f 37/45/40 35/43/38 74/134/83 
f 35/43/38 39/50/42 34/42/37 
f 34/42/37 43/54/46 32/40/35 
f 33/41/36 30/38/33 89/127/99 
f 29/37/32 31/39/34 32/40/35 
f 30/38/33 28/36/31 89/127/99 
f 28/36/31 26/35/29 87/128/97 
f 25/34/28 27/33/30 44/55/47 
f 26/180/29 24/176/26 88/181/98 
f 24/195/26 25/194/28 46/197/49 
f 23/120/25 88/181/98 24/176/26 
f 84/177/94 23/120/25 14/16/107 
f 22/171/22 85/168/95 84/167/94 
f 12/142/92 82/126/91 81/122/90 
f 20/145/74 66/153/72 10/141/76 
f 56/190/62 21/187/75 19/185/60 
f 54/166/58 5/8/61 18/59/106 
f 45/123/48 18/182/106 17/148/50 
f 16/28/27 24/176/26 17/112/50 
s 1
f 5/151/5 19/185/19 8/156/8 
f 21/158/21 20/70/20 11/159/11 
s 2
f 82/31/91 12/11/92 10/4/76 
f 12/11/92 22/27/22 13/15/24 
f 84/177/94 15/18/23 22/114/22 
f 14/16/107 15/18/23 84/177/94 
f 23/120/25 16/28/27 14/16/107 
f 12/142/92 81/122/90 83/154/93 
f 83/20/93 80/32/89 22/27/22 
f 81/122/90 80/121/89 83/154/93 
# 186 faces

